# xmcd
#
# Track frame offsets:
#	150
#	12975
#	23364
#	49320
#
# Disc length: 944 seconds
#
# Revision: 2
# Processed by: cddbd v1.4PL0 Copyright (c) Steve Scherf et al.
# Submitted via: EZCDDA 4.3.2
#
DISCID=2403ae04
DTITLE=Kasey Chambers - On A Bad Day
DYEAR=1900
DGENRE=
TTITLE0=On A Bad Day
TTITLE1=Crossfire
TTITLE2=Everything's Turning to White
TTITLE3=Crossfire (alternate version)
EXTD=
EXTT0=
EXTT1=
EXTT2=
EXTT3=
PLAYORDER=
